HIERARCHY
ROOT hip
{
	OFFSET 0.000000 0.000000 0.000000 
	CHANNELS 6 Xposition Yposition Zposition Xrotation Zrotation Yrotation
	JOINT abdomen
	{
		OFFSET 0.000000 3.402643 0.000000 
		CHANNELS 3 Xrotation Zrotation Yrotation
		JOINT chest
		{
			OFFSET 0.000000 8.438565 -0.680529 
			CHANNELS 3 Xrotation Zrotation Yrotation
			JOINT neck
			{
				OFFSET 0.000000 10.207942 -0.272212 
				CHANNELS 3 Xrotation Zrotation Yrotation
				JOINT head
				{
					OFFSET 0.000000 3.130431 0.000000 
					CHANNELS 3 Xrotation Zrotation Yrotation
					End Site
					{
						OFFSET 0.000000 3.130435 0.000000 
					}
				}
			}
			JOINT lCollar
			{
				OFFSET 3.470700 6.669187 -0.816635 
				CHANNELS 3 Yrotation Zrotation Xrotation
				JOINT lShldr
				{
					OFFSET 3.198488 0.000000 0.000000 
					CHANNELS 3 Zrotation Yrotation Xrotation
					JOINT lForeArm
					{
						OFFSET 10.139888 0.000000 0.000000 
						CHANNELS 3 Yrotation Zrotation Xrotation
						JOINT lHand
						{
							OFFSET 8.370511 0.000000 0.000000 
							CHANNELS 3 Zrotation Yrotation Xrotation
							End Site
							{
								OFFSET 4.083176 0.000000 0.000000 
							}
						}
					}
				}
			}
			JOINT rCollar
			{
				OFFSET -3.470700 6.669187 -0.816635 
				CHANNELS 3 Yrotation Zrotation Xrotation
				JOINT rShldr
				{
					OFFSET -3.198488 0.000000 0.000000 
					CHANNELS 3 Zrotation Yrotation Xrotation
					JOINT rForeArm
					{
						OFFSET -10.139888 0.000000 0.000000 
						CHANNELS 3 Yrotation Zrotation Xrotation
						JOINT rHand
						{
							OFFSET -8.370511 0.000000 0.000000 
							CHANNELS 3 Zrotation Yrotation Xrotation
							End Site
							{
								OFFSET -4.083176 0.000000 0.000000 
							}
						}
					}
				}
			}
		}
	}
	JOINT lThigh
	{
		OFFSET 5.308129 -1.633274 1.361059 
		CHANNELS 3 Xrotation Zrotation Yrotation
		JOINT lShin
		{
			OFFSET -2.041588 -20.007561 0.000000 
			CHANNELS 3 Xrotation Zrotation Yrotation
			JOINT lFoot
			{
				OFFSET 0.000000 -19.190928 -1.224953 
				CHANNELS 3 Xrotation Yrotation Zrotation
				End Site
				{
					OFFSET 0.000000 -2.449906 4.627600 
				}
			}
		}
	}
	JOINT rThigh
	{
		OFFSET -5.308129 -1.633274 1.361059 
		CHANNELS 3 Xrotation Zrotation Yrotation
		JOINT rShin
		{
			OFFSET 2.041588 -20.007561 0.000000 
			CHANNELS 3 Xrotation Zrotation Yrotation
			JOINT rFoot
			{
				OFFSET 0.000000 -19.190928 -1.224953 
				CHANNELS 3 Xrotation Yrotation Zrotation
				End Site
				{
					OFFSET 0.000000 -2.449906 4.627600 
				}
			}
		}
	}
}
MOTION
Frames: 13
Frame Time: 0.016667
-0.700145 46.259377 -0.920984 1.157080 -5.184500 -3.044480 -21.934200 0.953717 2.405080 18.885700 -1.981580 1.307760 17.882799 -0.342906 -3.381820 12.500900 3.189280 -0.996462 2.000000 -2.000000 0.000000 88.270203 168.856995 -7.917070 36.514000 -0.324729 0.081407 0.044915 -0.009512 -140.320007 -2.000000 2.000000 0.000000 92.242500 -18.779100 171.690994 -41.826599 0.316725 0.091178 -0.054442 -0.003747 -135.584000 14.267604 4.372547 -7.009577 -20.331188 7.450457 -1.597622 1.619176 20.275629 -0.777626 3.623960 5.585679 -2.241309 3.514772 -4.172818 -0.143616 -15.091311 -7.246587 -1.995475 
-0.703213 46.254097 -0.912345 1.157190 -5.243080 -3.016370 -21.934700 0.983100 2.372200 18.915001 -1.971850 1.286940 17.861401 -0.303414 -3.341790 12.501100 3.208600 -0.974052 2.000000 -2.000000 0.000000 88.240898 168.865997 -7.926810 36.523800 -0.324715 0.081426 0.044907 -0.009375 -140.270996 -2.000000 2.000000 0.000000 92.154701 -18.779400 171.789001 -41.836399 0.316710 0.091195 -0.054438 -0.003555 -135.651993 14.419820 4.413444 -6.988360 -20.630051 7.520644 -1.630633 1.783383 20.250938 -0.837221 3.622647 5.658753 -2.264693 3.525808 -4.176289 -0.144261 -15.028616 -7.274742 -1.972314 
-0.704978 46.250748 -0.904897 1.157240 -5.272370 -3.016960 -21.954300 0.983089 2.372180 18.915001 -1.981610 1.287220 17.871700 -0.313543 -3.353940 12.510700 3.198830 -0.974946 2.000000 -2.000000 0.000000 88.260399 168.876007 -7.965850 36.523800 -0.324715 0.081426 0.044888 -0.009048 -140.154007 -2.000000 2.000000 0.000000 92.125397 -18.789200 171.817993 -41.816799 0.316741 0.091160 -0.054437 -0.003528 -135.662003 14.417346 4.459149 -6.989563 -20.615053 7.503961 -1.626233 1.764901 20.267342 -0.817128 3.623695 5.681056 -2.261582 3.514312 -4.173203 -0.143655 -15.069224 -7.247454 -1.994621 
-0.704729 46.251266 -0.894528 1.127750 -5.233370 -3.003730 -21.954500 0.967179 2.357540 18.924801 -1.962100 1.286320 17.900999 -0.351269 -3.364240 12.520300 3.179420 -0.987052 2.000000 -2.000000 0.000000 -91.788200 10.986400 171.800003 36.357800 -0.324951 0.081107 0.044859 -0.008501 -139.959000 -2.000000 2.000000 0.000000 92.105797 -18.779400 171.789001 -41.816799 0.316741 0.091160 -0.054441 -0.003692 -135.602997 14.396771 4.421907 -6.995607 -20.490774 7.471078 -1.607119 1.682801 20.243176 -0.802580 3.700933 5.634285 -2.277269 3.526241 -4.175433 -0.134435 -15.108093 -7.238327 -1.981643 
-0.703477 46.249466 -0.887945 1.117910 -5.213860 -3.012220 -21.954599 0.954695 2.352040 18.954100 -1.962120 1.275550 17.911400 -0.333516 -3.367390 12.510600 3.189180 -0.986153 2.000000 -2.000000 0.000000 -91.797897 10.868800 171.643997 36.250401 -0.325103 0.080901 0.044846 -0.008256 -139.871002 -2.000000 2.000000 0.000000 92.105797 -18.750000 171.759995 -41.797298 0.316772 0.091126 -0.054453 -0.004211 -135.417999 14.451264 4.388937 -7.073625 -20.557987 7.546693 -1.624474 1.701702 20.321781 -0.797713 3.710976 5.615152 -2.267184 3.514286 -4.172733 -0.133869 -15.136145 -7.192451 -1.990813 
-0.702311 46.249603 -0.874813 1.088510 -5.223670 -3.029280 -21.945101 0.978448 2.331960 18.983500 -1.932870 1.263980 17.823099 -0.340510 -3.365780 12.471500 3.189580 -0.988326 2.000000 -2.000000 0.000000 -91.807701 10.947200 171.761002 36.416401 -0.324868 0.081220 0.044888 -0.009048 -140.154007 -2.000000 2.000000 0.000000 92.027702 -18.760099 171.886002 -41.846100 0.316694 0.091212 -0.054449 -0.004020 -135.485992 14.404664 4.408404 -7.087377 -20.361982 7.451864 -1.599863 1.582950 20.329794 -0.742943 3.759143 5.604851 -2.243711 3.532406 -4.170222 -0.133908 -15.149949 -7.142431 -1.965509 
-0.702246 46.252041 -0.867960 1.108100 -5.213870 -3.050400 -21.964899 0.984066 2.319140 18.973700 -1.913330 1.263770 17.832899 -0.368583 -3.374190 12.471400 3.179920 -0.989760 2.000000 -2.000000 0.000000 -91.817596 11.064500 171.770996 36.680099 -0.324493 0.081725 0.044895 -0.009157 -140.192993 -2.000000 2.000000 0.000000 -87.991798 -161.240005 -8.094000 -41.855900 0.316679 0.091230 -0.054447 -0.003965 -135.505997 14.430142 4.387778 -7.092660 -20.416660 7.502906 -1.601053 1.577698 20.358877 -0.760988 3.750411 5.596771 -2.225097 3.522659 -4.178943 -0.143817 -15.161862 -7.162148 -1.976769 
-0.699465 46.249344 -0.852304 1.108140 -5.233400 -3.041010 -21.984699 0.977200 2.300820 18.993299 -1.932870 1.253890 17.744600 -0.384908 -3.375490 12.432200 3.170660 -0.993355 2.000000 -2.000000 0.000000 88.221497 168.973999 -8.092570 36.514000 -0.324729 0.081407 0.044912 -0.009457 -140.300995 -2.000000 2.000000 0.000000 92.056999 -18.720900 171.837997 -41.777802 0.316803 0.091091 -0.054448 -0.003993 -135.496002 14.505066 4.375806 -7.077716 -20.532963 7.558421 -1.625543 1.642187 20.317364 -0.789231 3.748111 5.612086 -2.244199 3.532325 -4.170292 -0.133915 -15.165701 -7.201933 -1.987123 
-0.697479 46.248695 -0.840527 1.117800 -5.155270 -3.069670 -21.994400 0.977193 2.300800 19.012800 -1.884080 1.251910 17.742100 -0.382312 -3.336530 12.422600 3.190090 -0.981277 2.000000 -2.000000 0.000000 -91.837097 10.976600 171.781006 36.396900 -0.324895 0.081182 0.044895 -0.009157 -140.192993 -2.000000 2.000000 0.000000 92.037399 -18.711100 171.837997 -41.738701 0.316865 0.091021 -0.054448 -0.003993 -135.496002 14.430717 4.311022 -7.087258 -20.376856 7.498295 -1.608897 1.555937 20.320456 -0.761848 3.747843 5.526288 -2.213301 3.514403 -4.172636 -0.133859 -15.145722 -7.198631 -1.983913 
-0.694590 46.245483 -0.832983 1.107980 -5.145530 -3.088140 -22.004499 0.979388 2.278840 19.003099 -1.864550 1.241940 17.711500 -0.306054 -3.294990 12.423000 3.228730 -0.965807 2.000000 -2.000000 0.000000 -91.924896 10.946900 171.634003 36.328499 -0.324992 0.081051 0.044884 -0.008966 -140.125000 -2.000000 2.000000 0.000000 -88.021103 -161.289001 -8.084120 -41.728901 0.316881 0.091004 -0.054445 -0.003883 -135.535004 14.488966 4.274078 -7.116290 -20.420225 7.551633 -1.611731 1.538355 20.356110 -0.765561 3.770859 5.520457 -2.190950 3.521626 -4.179325 -0.134116 -15.103484 -7.218438 -1.991892 
-0.693676 46.242527 -0.829580 1.117740 -5.116220 -3.068910 -22.033100 0.944382 2.324530 18.983500 -1.913340 1.253680 17.733999 -0.244556 -3.321640 12.423100 3.238390 -0.974147 2.000000 -2.000000 0.000000 -91.885803 10.956600 171.585007 36.289398 -0.325047 0.080976 0.044863 -0.008583 -139.988007 -2.000000 2.000000 0.000000 92.105797 -18.769699 171.847000 -41.768002 0.316819 0.091073 -0.054446 -0.003938 -135.516006 14.477226 4.227933 -7.015342 -20.457039 7.565552 -1.614632 1.591351 20.250324 -0.781713 3.748826 5.489423 -2.207049 3.521910 -4.179087 -0.134092 -15.079328 -7.270546 -2.007813 
-0.692331 46.244064 -0.823346 1.117630 -5.057640 -3.067770 -22.043400 0.943151 2.293420 18.964001 -1.874280 1.243480 17.711500 -0.287449 -3.289040 12.423100 3.238390 -0.954615 2.000000 -2.000000 0.000000 -91.993202 10.966000 171.419006 36.289398 -0.325047 0.080976 0.044849 -0.008310 -139.891006 -2.000000 2.000000 0.000000 92.105904 -18.808800 171.856995 -41.826599 0.316725 0.091178 -0.054453 -0.004184 -135.427994 14.359200 4.175996 -7.020227 -20.233700 7.489836 -1.602686 1.552418 20.255451 -0.752035 3.759324 5.423601 -2.212239 3.534807 -4.180988 -0.133869 -15.120970 -7.234186 -1.979957 
-0.691208 46.243931 -0.818449 1.088170 -5.028390 -3.074390 -22.043200 0.946577 2.302560 18.944500 -1.854730 1.243570 17.710400 -0.351269 -3.290400 12.422800 3.209410 -0.958894 2.000000 -2.000000 0.000000 -91.983498 11.024900 171.565994 36.328499 -0.324992 0.081051 0.044869 -0.008693 -140.026993 -2.000000 2.000000 0.000000 92.115601 -18.808800 171.837997 -41.816799 0.316741 0.091160 -0.054449 -0.004047 -135.475998 14.308867 4.165761 -7.059572 -20.034195 7.434324 -1.586560 1.372956 20.291910 -0.697603 3.809545 5.389087 -2.208889 3.523635 -4.177633 -0.133946 -15.140060 -7.210083 -1.990408 
